<?xml version="1.0" encoding="iso-8859-1"?>
<!-- Uploaded to: SVG Repo, www.svgrepo.com, Generator: SVG Repo Mixer Tools -->
<svg fill="#000000" height="800px" width="800px" version="1.1" id="Layer_1" xmlns="http://www.w3.org/2000/svg" xmlns:xlink="http://www.w3.org/1999/xlink" 
	 viewBox="0 0 512 512" xml:space="preserve">
<g>
	<g>
		<path d="M498.911,485.108c-1.057-35.346-10.245-69.842-26.737-100.172c-17.11-31.464-41.63-57.787-70.91-76.124
			c-5.136-3.215-11.655-3.215-16.79,0c-2.555,1.6-5.955,3.798-9.608,6.627c-9.324,7.219-17.997,15.371-25.913,24.268
			c-11.527-12.074-24.385-22.583-38.379-31.346c-5.135-3.216-11.656-3.216-16.79,0c-3.352,2.1-7.033,4.753-11.252,8.11
			c-8.772,6.98-16.959,14.795-24.461,23.286c-11.356-11.796-24.148-22.176-38.186-30.966c-5.133-3.215-11.655-3.215-16.79,0
			c-18.204,11.4-34.565,25.892-48.454,42.787l-10.401-103.837c11.456,2.855,23.488,4.333,35.727,4.333
			c9.675,0,19.48-0.922,29.232-2.812c45.145-8.752,83.577-37.186,100.3-74.205c2.761-6.112,1.368-13.301-3.477-17.939
			c-28.326-27.114-72.424-39.241-116.06-32.18c11.588-42.663,4.132-87.797-19.88-118.805c-4.106-5.302-11.108-7.438-17.478-5.332
			C114.041,13.567,81.751,48.896,68.332,92.88c-11.276,36.961-8.047,76.397,8.027,106.978H57.413
			c-8.126,0-14.929,6.08-15.739,14.166l-27.007,269.58c-3.456,2.902-5.655,7.482-5.655,12.346c0,8.736,7.082,16.05,15.818,16.05
			h462.34c8.736,0,15.818-7.333,15.818-16.07C502.987,491.862,501.437,487.911,498.911,485.108z M174.935,161.172
			c5.278-1.796,10.739-3.258,16.344-4.346c30.698-5.951,61.666,0.017,83.712,15.613c-14.622,22.706-41.115,39.813-71.814,45.765
			c-26.003,5.043-52.194,1.53-72.997-9.14C148.079,197.536,163.561,180.963,174.935,161.172z M98.59,102.037
			c9.125-29.91,28.905-54.471,53.013-66.642c13.209,23.555,15.911,54.976,6.787,84.886c-6.32,20.715-17.753,38.861-32.193,52.106
			c3.243-10.543,6.627-21.497,9.371-30.345c2.588-8.344-2.08-17.206-10.424-19.794c-8.342-2.586-17.206,2.08-19.794,10.424
			c-0.899,2.902-4.938,15.932-9.27,30.015C91.639,143.775,92.332,122.55,98.59,102.037z M102.038,480.365v-25.309
			c0-8.736-7.082-15.818-15.818-15.818c-8.736,0-15.818,7.082-15.818,15.818v25.309H46.833l24.893-248.87h33.876
			c1.809,1.055,3.654,2.438,5.534,3.501l24.56,245.369H102.038z M167.49,480.367l-7.897-79.099
			c12.709-23.757,30.363-44.606,51.913-60.045c9.987,7.103,19.104,15.234,27.273,24.261c-4.013,6.355-7.679,12.943-10.963,19.728
			c-3.805,7.865-0.515,17.324,7.349,21.129c2.22,1.075,4.567,1.583,6.879,1.583c5.875,0,11.519-3.288,14.25-8.932
			c10.918-22.563,26.802-42.537,45.938-57.765c0.086-0.069,0.173-0.137,0.259-0.206c9.815,7.051,18.87,15.212,27.089,24.352
			c-4.102,6.461-7.845,13.171-11.193,20.09c-3.805,7.864-0.515,17.323,7.349,21.129c7.865,3.804,17.324,0.516,21.129-7.349
			c10.966-22.665,26.918-42.39,46.182-57.606c43.011,30.913,70.469,81.786,73.949,138.731H167.49z"/>
	</g>
</g>
</svg>